# Exported from Wings 3D 1.5.4
mtllib woodcrate.mtl
o Cube2
#116 vertices, 114 faces
v -1.00000000 -2.5152000e-2 -1.00000000
v -1.00000000 -2.5152000e-2 1.00000000
v -1.00000000 1.97484800 -1.00000000
v -1.00000000 1.97484800 1.00000000
v 1.00000000 -2.5152000e-2 -1.00000000
v 1.00000000 -2.5152000e-2 1.00000000
v 1.00000000 1.97484800 -1.00000000
v 1.00000000 1.97484800 1.00000000
v -0.83400000 1.97484800 -0.83400000
v -0.83400000 1.97484800 0.83400000
v 0.83400000 1.97484800 0.83400000
v 0.83400000 1.97484800 -0.83400000
v -0.83400000 -2.5152000e-2 0.83400000
v -0.83400000 -2.5152000e-2 -0.83400000
v 0.83400000 -2.5152000e-2 -0.83400000
v 0.83400000 -2.5152000e-2 0.83400000
v -0.83400000 1.80884800 1.00000000
v -0.83400000 0.14084800 1.00000000
v 0.83400000 0.14084800 1.00000000
v 0.83400000 1.80884800 1.00000000
v -0.83400000 0.14084800 -1.00000000
v -0.83400000 1.80884800 -1.00000000
v 0.83400000 1.80884800 -1.00000000
v 0.83400000 0.14084800 -1.00000000
v 1.00000000 0.14084800 0.83400000
v 1.00000000 0.14084800 -0.83400000
v 1.00000000 1.80884800 -0.83400000
v 1.00000000 1.80884800 0.83400000
v -1.00000000 0.14084800 -0.83400000
v -1.00000000 0.14084800 0.83400000
v -1.00000000 1.80884800 0.83400000
v -1.00000000 1.80884800 -0.83400000
v -0.83400000 1.78916267 -0.83400000
v 0.83400000 1.78916267 0.83400000
v -0.83400000 0.14084800 0.81431467
v 0.83400000 1.80884800 0.81431467
v 0.83400000 0.14084800 -0.81431467
v -0.83400000 1.80884800 -0.81431467
v 0.81431467 1.80884800 0.83400000
v 0.81431467 0.14084800 -0.83400000
v -0.83400000 0.16053333 0.83400000
v 0.83400000 0.16053333 -0.83400000
v -0.81431467 1.80884800 -0.83400000
v -0.81431467 0.14084800 0.83400000
v -0.70292800 1.78916267 0.83400000
v -0.83400000 1.92023467 0.83400000
v -0.83400000 1.78916267 0.70292800
v 0.83400000 1.78916267 -0.70292800
v 0.83400000 1.92023467 -0.83400000
v 0.70292800 1.78916267 -0.83400000
v -0.83400000 1.67777600 0.81431467
v -0.83400000 1.80884800 0.94538667
v -0.70292800 1.80884800 0.81431467
v 0.70292800 0.14084800 0.81431467
v 0.83400000 0.14084800 0.94538667
v 0.83400000 0.27192000 0.81431467
v -0.83400000 0.27192000 -0.81431467
v -0.83400000 0.14084800 -0.94538667
v -0.70292800 0.14084800 -0.81431467
v 0.70292800 1.80884800 -0.81431467
v 0.83400000 1.80884800 -0.94538667
v 0.83400000 1.67777600 -0.81431467
v 0.81431467 0.14084800 0.70292800
v 0.94538667 0.14084800 0.83400000
v 0.81431467 0.27192000 0.83400000
v 0.81431467 1.67777600 -0.83400000
v 0.94538667 1.80884800 -0.83400000
v 0.81431467 1.80884800 -0.70292800
v -0.70292800 0.16053333 -0.83400000
v -0.83400000 2.9461333e-2 -0.83400000
v -0.83400000 0.16053333 -0.70292800
v 0.83400000 0.16053333 0.70292800
v 0.83400000 2.9461333e-2 0.83400000
v 0.70292800 0.16053333 0.83400000
v -0.81431467 0.14084800 -0.70292800
v -0.94538667 0.14084800 -0.83400000
v -0.81431467 0.27192000 -0.83400000
v -0.81431467 1.67777600 0.83400000
v -0.94538667 1.80884800 0.83400000
v -0.81431467 1.80884800 0.70292800
v -0.68013955 1.85142187 0.81121155
v -0.81121155 1.85142187 0.68013955
v 0.81121155 1.85142187 -0.68013955
v 0.68013955 1.85142187 -0.81121155
v 0.79805463 1.95618003 -0.79805463
v -0.79805463 1.95618003 0.79805463
v 0.87657387 0.16363645 0.68013955
v 0.87657387 0.29470845 0.81121155
v 0.87657387 1.65498755 -0.81121155
v 0.87657387 1.78605955 -0.68013955
v 0.98133203 1.77290263 -0.79805463
v 0.98133203 0.17679337 0.79805463
v -0.68013955 9.8274133e-2 -0.81121155
v -0.81121155 9.8274133e-2 -0.68013955
v 0.81121155 9.8274133e-2 0.68013955
v 0.68013955 9.8274133e-2 0.81121155
v -0.79805463 -6.4840325e-3 -0.79805463
v 0.79805463 -6.4840325e-3 0.79805463
v -0.81121155 1.65498755 0.87657387
v -0.68013955 1.78605955 0.87657387
v 0.68013955 0.16363645 0.87657387
v 0.81121155 0.29470845 0.87657387
v 0.79805463 0.17679337 0.98133203
v -0.79805463 1.77290263 0.98133203
v -0.87657387 0.16363645 -0.68013955
v -0.87657387 0.29470845 -0.81121155
v -0.87657387 1.65498755 0.81121155
v -0.87657387 1.78605955 0.68013955
v -0.98133203 1.77290263 0.79805463
v -0.98133203 0.17679337 -0.79805463
v -0.81121155 0.29470845 -0.87657387
v -0.68013955 0.16363645 -0.87657387
v 0.68013955 1.78605955 -0.87657387
v 0.81121155 1.65498755 -0.87657387
v -0.79805463 0.17679337 -0.98133203
v 0.79805463 1.77290263 -0.98133203
vn -0.57735027 -0.57735027 -0.57735027
vn -0.57735027 -0.57735027 0.57735027
vn -0.57735027 0.57735027 -0.57735027
vn -0.57735027 0.57735027 0.57735027
vn 0.57735027 -0.57735027 -0.57735027
vn 0.57735027 -0.57735027 0.57735027
vn 0.57735027 0.57735027 -0.57735027
vn 0.57735027 0.57735027 0.57735027
vn 0.40824829 0.81649658 0.40824829
vn 0.40824829 0.81649658 -0.40824829
vn -0.40824829 0.81649658 -0.40824829
vn -0.40824829 0.81649658 0.40824829
vn 0.40824829 -0.81649658 -0.40824829
vn 0.40824829 -0.81649658 0.40824829
vn -0.40824829 -0.81649658 0.40824829
vn -0.40824829 -0.81649658 -0.40824829
vn 0.40824829 -0.40824829 0.81649658
vn 0.40824829 0.40824829 0.81649658
vn -0.40824829 0.40824829 0.81649658
vn -0.40824829 -0.40824829 0.81649658
vn 0.40824829 0.40824829 -0.81649658
vn 0.40824829 -0.40824829 -0.81649658
vn -0.40824829 -0.40824829 -0.81649658
vn -0.40824829 0.40824829 -0.81649658
vn 0.81649658 0.40824829 -0.40824829
vn 0.81649658 0.40824829 0.40824829
vn 0.81649658 -0.40824829 0.40824829
vn 0.81649658 -0.40824829 -0.40824829
vn -0.81649658 0.40824829 0.40824829
vn -0.81649658 0.40824829 -0.40824829
vn -0.81649658 -0.40824829 -0.40824829
vn -0.81649658 -0.40824829 0.40824829
vn 0.57735027 0.57735027 0.57735027
vn -0.57735027 0.57735027 -0.57735027
vn 0.57735027 0.57735027 0.57735027
vn -0.57735027 -0.57735027 0.57735027
vn -0.57735027 0.57735027 -0.57735027
vn 0.57735027 -0.57735027 -0.57735027
vn 0.57735027 -0.57735027 -0.57735027
vn 0.57735027 0.57735027 0.57735027
vn 0.57735027 -0.57735027 -0.57735027
vn -0.57735027 -0.57735027 0.57735027
vn -0.57735027 -0.57735027 0.57735027
vn -0.57735027 0.57735027 -0.57735027
vn 0.55877283 0.75954740 0.33295747
vn 0.44151905 0.78110297 -0.44151905
vn -0.33295747 0.75954740 -0.55877283
vn 0.33295747 0.75954740 0.55877283
vn -0.44151905 0.78110297 0.44151905
vn -0.55877283 0.75954740 -0.33295747
vn -0.33295747 -0.55877283 0.75954740
vn 0.44151905 -0.44151905 0.78110297
vn 0.55877283 0.33295747 0.75954740
vn -0.55877283 -0.33295747 0.75954740
vn -0.44151905 0.44151905 0.78110297
vn 0.33295747 0.55877283 0.75954740
vn -0.33295747 0.55877283 -0.75954740
vn 0.44151905 0.44151905 -0.78110297
vn 0.55877283 -0.33295747 -0.75954740
vn -0.55877283 0.33295747 -0.75954740
vn -0.44151905 -0.44151905 -0.78110297
vn 0.33295747 -0.55877283 -0.75954740
vn 0.75954740 -0.33295747 -0.55877283
vn 0.78110297 0.44151905 -0.44151905
vn 0.75954740 0.55877283 0.33295747
vn 0.75954740 -0.55877283 -0.33295747
vn 0.78110297 -0.44151905 0.44151905
vn 0.75954740 0.33295747 0.55877283
vn 0.55877283 -0.75954740 -0.33295747
vn 0.44151905 -0.78110297 0.44151905
vn -0.33295747 -0.75954740 0.55877283
vn 0.33295747 -0.75954740 -0.55877283
vn -0.44151905 -0.78110297 -0.44151905
vn -0.55877283 -0.75954740 0.33295747
vn -0.75954740 -0.33295747 0.55877283
vn -0.78110297 0.44151905 0.44151905
vn -0.75954740 0.55877283 -0.33295747
vn -0.75954740 -0.55877283 0.33295747
vn -0.78110297 -0.44151905 -0.44151905
vn -0.75954740 0.33295747 -0.55877283
vn 0.58479213 0.71791567 0.37764435
vn -0.37764435 0.71791567 -0.58479213
vn 0.37764435 0.71791567 0.58479213
vn -0.58479213 0.71791567 -0.37764435
vn 1.4918207e-2 0.99977742 -1.4918207e-2
vn -1.4918207e-2 0.99977742 1.4918207e-2
vn 0.71791567 -0.37764435 -0.58479213
vn 0.71791567 0.58479213 0.37764435
vn 0.71791567 -0.58479213 -0.37764435
vn 0.71791567 0.37764435 0.58479213
vn 0.99977742 1.4918207e-2 -1.4918207e-2
vn 0.99977742 -1.4918207e-2 1.4918207e-2
vn 0.58479213 -0.71791567 -0.37764435
vn -0.37764435 -0.71791567 0.58479213
vn 0.37764435 -0.71791567 -0.58479213
vn -0.58479213 -0.71791567 0.37764435
vn -1.4918207e-2 -0.99977742 -1.4918207e-2
vn 1.4918207e-2 -0.99977742 1.4918207e-2
vn -0.37764435 -0.58479213 0.71791567
vn 0.58479213 0.37764435 0.71791567
vn -0.58479213 -0.37764435 0.71791567
vn 0.37764435 0.58479213 0.71791567
vn 1.4918207e-2 -1.4918207e-2 0.99977742
vn -1.4918207e-2 1.4918207e-2 0.99977742
vn -0.71791567 -0.37764435 0.58479213
vn -0.71791567 0.58479213 -0.37764435
vn -0.71791567 -0.58479213 0.37764435
vn -0.71791567 0.37764435 -0.58479213
vn -0.99977742 1.4918207e-2 1.4918207e-2
vn -0.99977742 -1.4918207e-2 -1.4918207e-2
vn -0.37764435 0.58479213 -0.71791567
vn 0.58479213 -0.37764435 -0.71791567
vn -0.58479213 0.37764435 -0.71791567
vn 0.37764435 -0.58479213 -0.71791567
vn -1.4918207e-2 -1.4918207e-2 -0.99977742
vn 1.4918207e-2 1.4918207e-2 -0.99977742
g Cube2_default
usemtl default
s 1
f 1//1 14//14 13//13 2//2
f 1//1 21//21 24//24 5//5
f 1//1 29//29 32//32 3//3
f 2//2 13//13 16//16 6//6
f 2//2 18//18 17//17 4//4
f 2//2 30//30 29//29 1//1
f 3//3 9//9 12//12 7//7
f 3//3 22//22 21//21 1//1
f 3//3 32//32 31//31 4//4
f 4//4 10//10 9//9 3//3
f 4//4 17//17 20//20 8//8
f 4//4 31//31 30//30 2//2
f 5//5 15//15 14//14 1//1
f 5//5 24//24 23//23 7//7
f 5//5 26//26 25//25 6//6
f 6//6 16//16 15//15 5//5
f 6//6 19//19 18//18 2//2
f 6//6 25//25 28//28 8//8
f 7//7 12//12 11//11 8//8
f 7//7 23//23 22//22 3//3
f 7//7 27//27 26//26 5//5
f 8//8 11//11 10//10 4//4
f 8//8 20//20 19//19 6//6
f 8//8 28//28 27//27 7//7
f 9//9 33//33 50//50 49//49 12//12
f 10//10 46//46 47//47 33//33 9//9
f 11//11 34//34 45//45 46//46 10//10
f 12//12 49//49 48//48 34//34 11//11
f 13//13 41//41 74//74 73//73 16//16
f 14//14 70//70 71//71 41//41 13//13
f 15//15 42//42 69//69 70//70 14//14
f 16//16 73//73 72//72 42//42 15//15
f 17//17 52//52 53//53 36//36 20//20
f 18//18 35//35 51//51 52//52 17//17
f 19//19 55//55 54//54 35//35 18//18
f 20//20 36//36 56//56 55//55 19//19
f 21//21 58//58 59//59 37//37 24//24
f 22//22 38//38 57//57 58//58 21//21
f 23//23 61//61 60//60 38//38 22//22
f 24//24 37//37 62//62 61//61 23//23
f 25//25 64//64 65//65 39//39 28//28
f 26//26 40//40 63//63 64//64 25//25
f 27//27 67//67 66//66 40//40 26//26
f 28//28 39//39 68//68 67//67 27//27
f 29//29 76//76 77//77 43//43 32//32
f 30//30 44//44 75//75 76//76 29//29
f 31//31 79//79 78//78 44//44 30//30
f 32//32 43//43 80//80 79//79 31//31
f 33//33 47//47 50//50
f 34//34 48//48 45//45
f 35//35 54//54 51//51
f 36//36 53//53 56//56
f 37//37 59//59 62//62
f 38//38 60//60 57//57
f 39//39 65//65 68//68
f 40//40 66//66 63//63
f 41//41 71//71 74//74
f 42//42 72//72 69//69
f 43//43 77//77 80//80
f 44//44 78//78 75//75
f 45//45 81//81 86//86 46//46
f 46//46 86//86 82//82 47//47
f 47//47 82//82 84//84 50//50
f 48//48 83//83 81//81 45//45
f 49//49 85//85 83//83 48//48
f 50//50 84//84 85//85 49//49
f 51//51 99//99 104//104 52//52
f 52//52 104//104 100//100 53//53
f 53//53 100//100 102//102 56//56
f 54//54 101//101 99//99 51//51
f 55//55 103//103 101//101 54//54
f 56//56 102//102 103//103 55//55
f 57//57 111//111 115//115 58//58
f 58//58 115//115 112//112 59//59
f 59//59 112//112 114//114 62//62
f 60//60 113//113 111//111 57//57
f 61//61 116//116 113//113 60//60
f 62//62 114//114 116//116 61//61
f 63//63 87//87 92//92 64//64
f 64//64 92//92 88//88 65//65
f 65//65 88//88 90//90 68//68
f 66//66 89//89 87//87 63//63
f 67//67 91//91 89//89 66//66
f 68//68 90//90 91//91 67//67
f 69//69 93//93 97//97 70//70
f 70//70 97//97 94//94 71//71
f 71//71 94//94 96//96 74//74
f 72//72 95//95 93//93 69//69
f 73//73 98//98 95//95 72//72
f 74//74 96//96 98//98 73//73
f 75//75 105//105 110//110 76//76
f 76//76 110//110 106//106 77//77
f 77//77 106//106 108//108 80//80
f 78//78 107//107 105//105 75//75
f 79//79 109//109 107//107 78//78
f 80//80 108//108 109//109 79//79
f 81//81 83//83 84//84 82//82
f 82//82 86//86 81//81
f 83//83 85//85 84//84
f 87//87 89//89 90//90 88//88
f 88//88 92//92 87//87
f 89//89 91//91 90//90
f 93//93 95//95 96//96 94//94
f 94//94 97//97 93//93
f 95//95 98//98 96//96
f 99//99 101//101 102//102 100//100
f 100//100 104//104 99//99
f 101//101 103//103 102//102
f 105//105 107//107 108//108 106//106
f 106//106 110//110 105//105
f 107//107 109//109 108//108
f 111//111 113//113 114//114 112//112
f 112//112 115//115 111//111
f 113//113 116//116 114//114
