# Exported from Wings 3D 1.5.4
mtllib CrateMetal.mtl
o Cube1
#104 vertices, 82 faces
v -2.16400000 6.2222222e-3 -1.00000000
v -2.16400000 6.2222222e-3 1.00000000
v -2.16400000 2.00622222 -1.00000000
v -2.16400000 2.00622222 1.00000000
v 2.16400000 6.2222222e-3 -1.00000000
v 2.16400000 6.2222222e-3 1.00000000
v 2.16400000 2.00622222 -1.00000000
v 2.16400000 2.00622222 1.00000000
v -1.99800000 1.84022222 0.99400000
v -1.99800000 0.17222222 0.99400000
v 1.99800000 0.17222222 0.99400000
v 1.99800000 1.84022222 0.99400000
v -1.99800000 0.17222222 -0.99400000
v -1.99800000 1.84022222 -0.99400000
v 1.99800000 1.84022222 -0.99400000
v 1.99800000 0.17222222 -0.99400000
v -1.99800000 0.17222222 -0.84253333
v -1.99800000 1.84022222 -0.84253333
v 1.99800000 1.84022222 -0.84253333
v 1.99800000 0.17222222 -0.84253333
v -1.99800000 1.84022222 0.84253333
v -1.99800000 0.17222222 0.84253333
v 1.99800000 0.17222222 0.84253333
v 1.99800000 1.84022222 0.84253333
v 1.63472727 1.84022222 -0.84253333
v 1.27145455 1.84022222 -0.84253333
v 0.90818182 1.84022222 -0.84253333
v 0.54490909 1.84022222 -0.84253333
v 0.18163636 1.84022222 -0.84253333
v -0.18163636 1.84022222 -0.84253333
v -0.54490909 1.84022222 -0.84253333
v -0.90818182 1.84022222 -0.84253333
v -1.27145455 1.84022222 -0.84253333
v -1.63472727 1.84022222 -0.84253333
v -1.63472727 0.17222222 -0.84253333
v -1.27145455 0.17222222 -0.84253333
v -0.90818182 0.17222222 -0.84253333
v -0.54490909 0.17222222 -0.84253333
v -0.18163636 0.17222222 -0.84253333
v 0.18163636 0.17222222 -0.84253333
v 0.54490909 0.17222222 -0.84253333
v 0.90818182 0.17222222 -0.84253333
v 1.27145455 0.17222222 -0.84253333
v 1.63472727 0.17222222 -0.84253333
v 1.63472727 0.17222222 0.84253333
v 1.27145455 0.17222222 0.84253333
v 0.90818182 0.17222222 0.84253333
v 0.54490909 0.17222222 0.84253333
v 0.18163636 0.17222222 0.84253333
v -0.18163636 0.17222222 0.84253333
v -0.54490909 0.17222222 0.84253333
v -0.90818182 0.17222222 0.84253333
v -1.27145455 0.17222222 0.84253333
v -1.63472727 0.17222222 0.84253333
v -1.63472727 1.84022222 0.84253333
v -1.27145455 1.84022222 0.84253333
v -0.90818182 1.84022222 0.84253333
v -0.54490909 1.84022222 0.84253333
v -0.18163636 1.84022222 0.84253333
v 0.18163636 1.84022222 0.84253333
v 0.54490909 1.84022222 0.84253333
v 0.90818182 1.84022222 0.84253333
v 1.27145455 1.84022222 0.84253333
v 1.63472727 1.84022222 0.84253333
v 1.62564545 1.79852222 -0.94493333
v 1.62564545 0.21392222 -0.94493333
v 1.28053636 0.21392222 -0.94493333
v 1.28053636 1.79852222 -0.94493333
v 0.89910000 1.79852222 -0.94493333
v 0.89910000 0.21392222 -0.94493333
v 0.55399091 0.21392222 -0.94493333
v 0.55399091 1.79852222 -0.94493333
v 0.17255455 1.79852222 -0.94493333
v 0.17255455 0.21392222 -0.94493333
v -0.17255455 0.21392222 -0.94493333
v -0.17255455 1.79852222 -0.94493333
v -0.55399091 1.79852222 -0.94493333
v -0.55399091 0.21392222 -0.94493333
v -0.89910000 0.21392222 -0.94493333
v -0.89910000 1.79852222 -0.94493333
v -1.28053636 1.79852222 -0.94493333
v -1.28053636 0.21392222 -0.94493333
v -1.62564545 0.21392222 -0.94493333
v -1.62564545 1.79852222 -0.94493333
v 1.62564545 0.21392222 0.94493333
v 1.62564545 1.79852222 0.94493333
v 1.28053636 1.79852222 0.94493333
v 1.28053636 0.21392222 0.94493333
v 0.89910000 0.21392222 0.94493333
v 0.89910000 1.79852222 0.94493333
v 0.55399091 1.79852222 0.94493333
v 0.55399091 0.21392222 0.94493333
v 0.17255455 0.21392222 0.94493333
v 0.17255455 1.79852222 0.94493333
v -0.17255455 1.79852222 0.94493333
v -0.17255455 0.21392222 0.94493333
v -0.55399091 0.21392222 0.94493333
v -0.55399091 1.79852222 0.94493333
v -0.89910000 1.79852222 0.94493333
v -0.89910000 0.21392222 0.94493333
v -1.28053636 0.21392222 0.94493333
v -1.28053636 1.79852222 0.94493333
v -1.62564545 1.79852222 0.94493333
v -1.62564545 0.21392222 0.94493333
vn -0.39841596 -0.39841596 -0.82615340
vn -0.39841596 -0.39841596 0.82615340
vn -0.39841596 0.39841596 -0.82615340
vn -0.39841596 0.39841596 0.82615340
vn 0.39841596 -0.39841596 -0.82615340
vn 0.39841596 -0.39841596 0.82615340
vn 0.39841596 0.39841596 -0.82615340
vn 0.39841596 0.39841596 0.82615340
vn 0.41808059 -0.41808059 0.80648450
vn 0.41808059 0.41808059 0.80648450
vn -0.41808059 0.41808059 0.80648450
vn -0.41808059 -0.41808059 0.80648450
vn 0.41808059 0.41808059 -0.80648450
vn 0.41808059 -0.41808059 -0.80648450
vn -0.41808059 -0.41808059 -0.80648450
vn -0.41808059 0.41808059 -0.80648450
vn 0.57735027 0.57735027 -0.57735027
vn 0.57735027 -0.57735027 -0.57735027
vn -0.57735027 -0.57735027 -0.57735027
vn -0.57735027 0.57735027 -0.57735027
vn 0.57735027 -0.57735027 0.57735027
vn 0.57735027 0.57735027 0.57735027
vn -0.57735027 0.57735027 0.57735027
vn -0.57735027 -0.57735027 0.57735027
vn 0.56164987 -4.1640161e-2 -0.82632652
vn -0.56164987 -4.1640161e-2 -0.82632652
vn 0.56164987 -4.1640161e-2 -0.82632652
vn -0.56164987 -4.1640161e-2 -0.82632652
vn 0.56164987 -4.1640161e-2 -0.82632652
vn -0.56164987 -4.1640161e-2 -0.82632652
vn 0.56164987 -4.1640161e-2 -0.82632652
vn -0.56164987 -4.1640161e-2 -0.82632652
vn 0.56164987 -4.1640161e-2 -0.82632652
vn -0.56164987 -4.1640161e-2 -0.82632652
vn -0.56164987 4.1640161e-2 -0.82632652
vn 0.56164987 4.1640161e-2 -0.82632652
vn -0.56164987 4.1640161e-2 -0.82632652
vn 0.56164987 4.1640161e-2 -0.82632652
vn -0.56164987 4.1640161e-2 -0.82632652
vn 0.56164987 4.1640161e-2 -0.82632652
vn -0.56164987 4.1640161e-2 -0.82632652
vn 0.56164987 4.1640161e-2 -0.82632652
vn -0.56164987 4.1640161e-2 -0.82632652
vn 0.56164987 4.1640161e-2 -0.82632652
vn 0.56164987 4.1640161e-2 0.82632652
vn -0.56164987 4.1640161e-2 0.82632652
vn 0.56164987 4.1640161e-2 0.82632652
vn -0.56164987 4.1640161e-2 0.82632652
vn 0.56164987 4.1640161e-2 0.82632652
vn -0.56164987 4.1640161e-2 0.82632652
vn 0.56164987 4.1640161e-2 0.82632652
vn -0.56164987 4.1640161e-2 0.82632652
vn 0.56164987 4.1640161e-2 0.82632652
vn -0.56164987 4.1640161e-2 0.82632652
vn -0.56164987 -4.1640161e-2 0.82632652
vn 0.56164987 -4.1640161e-2 0.82632652
vn -0.56164987 -4.1640161e-2 0.82632652
vn 0.56164987 -4.1640161e-2 0.82632652
vn -0.56164987 -4.1640161e-2 0.82632652
vn 0.56164987 -4.1640161e-2 0.82632652
vn -0.56164987 -4.1640161e-2 0.82632652
vn 0.56164987 -4.1640161e-2 0.82632652
vn -0.56164987 -4.1640161e-2 0.82632652
vn 0.56164987 -4.1640161e-2 0.82632652
vn 0.49819269 0.46321269 -0.73296524
vn 0.49819269 -0.46321269 -0.73296524
vn -0.49819269 -0.46321269 -0.73296524
vn -0.49819269 0.46321269 -0.73296524
vn 0.49819269 0.46321269 -0.73296524
vn 0.49819269 -0.46321269 -0.73296524
vn -0.49819269 -0.46321269 -0.73296524
vn -0.49819269 0.46321269 -0.73296524
vn 0.49819269 0.46321269 -0.73296524
vn 0.49819269 -0.46321269 -0.73296524
vn -0.49819269 -0.46321269 -0.73296524
vn -0.49819269 0.46321269 -0.73296524
vn 0.49819269 0.46321269 -0.73296524
vn 0.49819269 -0.46321269 -0.73296524
vn -0.49819269 -0.46321269 -0.73296524
vn -0.49819269 0.46321269 -0.73296524
vn 0.49819269 0.46321269 -0.73296524
vn 0.49819269 -0.46321269 -0.73296524
vn -0.49819269 -0.46321269 -0.73296524
vn -0.49819269 0.46321269 -0.73296524
vn 0.49819269 -0.46321269 0.73296524
vn 0.49819269 0.46321269 0.73296524
vn -0.49819269 0.46321269 0.73296524
vn -0.49819269 -0.46321269 0.73296524
vn 0.49819269 -0.46321269 0.73296524
vn 0.49819269 0.46321269 0.73296524
vn -0.49819269 0.46321269 0.73296524
vn -0.49819269 -0.46321269 0.73296524
vn 0.49819269 -0.46321269 0.73296524
vn 0.49819269 0.46321269 0.73296524
vn -0.49819269 0.46321269 0.73296524
vn -0.49819269 -0.46321269 0.73296524
vn 0.49819269 -0.46321269 0.73296524
vn 0.49819269 0.46321269 0.73296524
vn -0.49819269 0.46321269 0.73296524
vn -0.49819269 -0.46321269 0.73296524
vn 0.49819269 -0.46321269 0.73296524
vn 0.49819269 0.46321269 0.73296524
vn -0.49819269 0.46321269 0.73296524
vn -0.49819269 -0.46321269 0.73296524
g Cube1_default
usemtl default
s 1
f 1//1 5//5 6//6 2//2
f 1//1 13//13 16//16 5//5
f 2//2 4//4 3//3 1//1
f 2//2 10//10 9//9 4//4
f 3//3 14//14 13//13 1//1
f 4//4 8//8 7//7 3//3
f 4//4 9//9 12//12 8//8
f 5//5 7//7 8//8 6//6
f 5//5 16//16 15//15 7//7
f 6//6 11//11 10//10 2//2
f 7//7 15//15 14//14 3//3
f 8//8 12//12 11//11 6//6
f 9//9 21//21 55//55 56//56 57//57 58//58 59//59 60//60 61//61 62//62 63//63 64//64 24//24 12//12
f 10//10 22//22 21//21 9//9
f 11//11 23//23 45//45 46//46 47//47 48//48 49//49 50//50 51//51 52//52 53//53 54//54 22//22 10//10
f 12//12 24//24 23//23 11//11
f 13//13 17//17 35//35 36//36 37//37 38//38 39//39 40//40 41//41 42//42 43//43 44//44 20//20 16//16
f 14//14 18//18 17//17 13//13
f 15//15 19//19 25//25 26//26 27//27 28//28 29//29 30//30 31//31 32//32 33//33 34//34 18//18 14//14
f 16//16 20//20 19//19 15//15
f 18//18 34//34 35//35 17//17
f 19//19 20//20 44//44 25//25
f 22//22 54//54 55//55 21//21
f 23//23 24//24 64//64 45//45
f 25//25 65//65 68//68 26//26
f 26//26 43//43 42//42 27//27
f 26//26 68//68 67//67 43//43
f 27//27 69//69 72//72 28//28
f 28//28 41//41 40//40 29//29
f 28//28 72//72 71//71 41//41
f 29//29 73//73 76//76 30//30
f 30//30 39//39 38//38 31//31
f 30//30 76//76 75//75 39//39
f 31//31 77//77 80//80 32//32
f 32//32 37//37 36//36 33//33
f 32//32 80//80 79//79 37//37
f 33//33 81//81 84//84 34//34
f 34//34 84//84 83//83 35//35
f 35//35 83//83 82//82 36//36
f 36//36 82//82 81//81 33//33
f 37//37 79//79 78//78 38//38
f 38//38 78//78 77//77 31//31
f 39//39 75//75 74//74 40//40
f 40//40 74//74 73//73 29//29
f 41//41 71//71 70//70 42//42
f 42//42 70//70 69//69 27//27
f 43//43 67//67 66//66 44//44
f 44//44 66//66 65//65 25//25
f 45//45 85//85 88//88 46//46
f 46//46 63//63 62//62 47//47
f 46//46 88//88 87//87 63//63
f 47//47 89//89 92//92 48//48
f 48//48 61//61 60//60 49//49
f 48//48 92//92 91//91 61//61
f 49//49 93//93 96//96 50//50
f 50//50 59//59 58//58 51//51
f 50//50 96//96 95//95 59//59
f 51//51 97//97 100//100 52//52
f 52//52 57//57 56//56 53//53
f 52//52 100//100 99//99 57//57
f 53//53 101//101 104//104 54//54
f 54//54 104//104 103//103 55//55
f 55//55 103//103 102//102 56//56
f 56//56 102//102 101//101 53//53
f 57//57 99//99 98//98 58//58
f 58//58 98//98 97//97 51//51
f 59//59 95//95 94//94 60//60
f 60//60 94//94 93//93 49//49
f 61//61 91//91 90//90 62//62
f 62//62 90//90 89//89 47//47
f 63//63 87//87 86//86 64//64
f 64//64 86//86 85//85 45//45
f 66//66 67//67 68//68 65//65
f 70//70 71//71 72//72 69//69
f 74//74 75//75 76//76 73//73
f 78//78 79//79 80//80 77//77
f 82//82 83//83 84//84 81//81
f 86//86 87//87 88//88 85//85
f 90//90 91//91 92//92 89//89
f 94//94 95//95 96//96 93//93
f 98//98 99//99 100//100 97//97
f 102//102 103//103 104//104 101//101
