# Exported from Wings 3D 1.5.4
mtllib Policee.mtl
o Cube3
#76 vertices, 74 faces
v -1.00000000 -6.2222222e-3 -1.00000000
v -1.00000000 -6.2222222e-3 1.00000000
v -1.00000000 1.99377778 -1.00000000
v -1.00000000 1.99377778 1.00000000
v 1.00000000 -6.2222222e-3 -1.00000000
v 1.00000000 -6.2222222e-3 1.00000000
v 1.00000000 1.99377778 -1.00000000
v 1.00000000 1.99377778 1.00000000
v 1.00000000 1.31633778 1.43776000
v 1.00000000 1.31633778 -1.91648000
v -1.00000000 1.31633778 1.43776000
v -1.00000000 1.31633778 -1.91648000
v -1.00000000 1.31633778 -2.55904000
v 1.00000000 1.31633778 -2.55904000
v 1.00000000 -6.2222222e-3 -2.55904000
v -1.00000000 -6.2222222e-3 -2.55904000
v 1.00000000 1.31633778 2.55904000
v -1.00000000 1.31633778 2.55904000
v -1.00000000 -6.2222222e-3 2.55904000
v 1.00000000 -6.2222222e-3 2.55904000
v 1.56832000 1.31633778 2.55904000
v 1.56832000 -6.2222222e-3 2.55904000
v 1.56832000 -6.2222222e-3 1.00000000
v 1.56832000 1.31633778 1.43776000
v -1.56832000 -6.2222222e-3 2.55904000
v -1.56832000 1.31633778 2.55904000
v -1.56832000 1.31633778 1.43776000
v -1.56832000 -6.2222222e-3 1.00000000
v -1.56832000 1.31633778 -2.55904000
v -1.56832000 -6.2222222e-3 -2.55904000
v -1.56832000 -6.2222222e-3 -1.00000000
v -1.56832000 1.31633778 -1.91648000
v 1.56832000 -6.2222222e-3 -2.55904000
v 1.56832000 1.31633778 -2.55904000
v 1.56832000 1.31633778 -1.91648000
v 1.56832000 -6.2222222e-3 -1.00000000
v 1.56832000 0.21454733 -2.33827045
v 1.56832000 1.09556823 -2.33827045
v 1.56832000 1.09556823 -2.03209093
v 1.56832000 0.21454733 -1.42157947
v -1.56832000 1.09556823 -2.33827045
v -1.56832000 0.21454733 -2.33827045
v -1.56832000 0.21454733 -1.42157947
v -1.56832000 1.09556823 -2.03209093
v -1.56832000 0.21454733 2.33827045
v -1.56832000 1.09556823 2.33827045
v -1.56832000 1.09556823 1.59723528
v -1.56832000 0.21454733 1.30562226
v 1.56832000 1.09556823 2.33827045
v 1.56832000 0.21454733 2.33827045
v 1.56832000 0.21454733 1.30562226
v 1.56832000 1.09556823 1.59723528
v 1.20736000 1.09556823 2.33827045
v 1.20736000 0.21454733 2.33827045
v 1.20736000 0.21454733 1.30562226
v 1.20736000 1.09556823 1.59723528
v -1.20736000 0.21454733 2.33827045
v -1.20736000 1.09556823 2.33827045
v -1.20736000 1.09556823 1.59723528
v -1.20736000 0.21454733 1.30562226
v -1.20736000 1.09556823 -2.33827045
v -1.20736000 0.21454733 -2.33827045
v -1.20736000 0.21454733 -1.42157947
v -1.20736000 1.09556823 -2.03209093
v 1.20736000 0.21454733 -2.33827045
v 1.20736000 1.09556823 -2.33827045
v 1.20736000 1.09556823 -2.03209093
v 1.20736000 0.21454733 -1.42157947
v -0.82200000 1.99377778 -0.26797200
v -0.82200000 1.99377778 0.26797200
v 0.82200000 1.99377778 0.26797200
v 0.82200000 1.99377778 -0.26797200
v -0.82200000 2.19601778 -0.26797200
v -0.82200000 2.19601778 0.26797200
v 0.82200000 2.19601778 0.26797200
v 0.82200000 2.19601778 -0.26797200
vn -0.36315483 -0.88262171 0.29849203
vn -0.33123066 -0.88960980 -0.31445294
vn -0.32939258 0.92366906 -0.19579581
vn -0.34983506 0.88954002 0.29382646
vn 0.36315483 -0.88262171 0.29849203
vn 0.33123066 -0.88960980 -0.31445294
vn 0.32939258 0.92366906 -0.19579581
vn 0.34983506 0.88954002 0.29382646
vn 0.57320344 0.81881248 -3.1367798e-2
vn 0.50908839 0.85876352 5.7915623e-2
vn -0.57320344 0.81881248 -3.1367798e-2
vn -0.50908839 0.85876352 5.7915623e-2
vn 0.0000000e+0 0.70710678 -0.70710678
vn 0.0000000e+0 0.70710678 -0.70710678
vn 0.0000000e+0 -0.70710678 -0.70710678
vn 0.0000000e+0 -0.70710678 -0.70710678
vn 0.0000000e+0 0.70710678 0.70710678
vn 0.0000000e+0 0.70710678 0.70710678
vn 0.0000000e+0 -0.70710678 0.70710678
vn 0.0000000e+0 -0.70710678 0.70710678
vn 0.81649658 0.40824829 0.40824829
vn 0.81649658 -0.40824829 0.40824829
vn 0.86293976 -0.29588967 -0.40961478
vn 0.77682602 0.51046352 -0.36873885
vn -0.81649658 -0.40824829 0.40824829
vn -0.81649658 0.40824829 0.40824829
vn -0.77682602 0.51046352 -0.36873885
vn -0.86293976 -0.29588967 -0.40961478
vn -0.81649658 0.40824829 -0.40824829
vn -0.81649658 -0.40824829 -0.40824829
vn -0.90713852 -0.19522897 0.37280741
vn -0.74852607 0.58743273 0.30762233
vn 0.81649658 -0.40824829 -0.40824829
vn 0.81649658 0.40824829 -0.40824829
vn 0.74852607 0.58743273 0.30762233
vn 0.90713852 -0.19522897 0.37280741
vn 0.81649658 0.40824829 0.40824829
vn 0.81649658 -0.40824829 0.40824829
vn 0.74852607 -0.58743273 -0.30762233
vn 0.90713852 0.19522897 -0.37280741
vn -0.81649658 -0.40824829 0.40824829
vn -0.81649658 0.40824829 0.40824829
vn -0.90713852 0.19522897 -0.37280741
vn -0.74852607 -0.58743273 -0.30762233
vn -0.81649658 0.40824829 -0.40824829
vn -0.81649658 -0.40824829 -0.40824829
vn -0.77682602 -0.51046352 0.36873885
vn -0.86293976 0.29588967 0.40961478
vn 0.81649658 -0.40824829 -0.40824829
vn 0.81649658 0.40824829 -0.40824829
vn 0.86293976 0.29588967 0.40961478
vn 0.77682602 -0.51046352 0.36873885
vn 0.57735027 -0.57735027 -0.57735027
vn 0.57735027 0.57735027 -0.57735027
vn 0.64935850 0.44531144 0.61646675
vn 0.52497544 -0.68993778 0.49838403
vn -0.57735027 0.57735027 -0.57735027
vn -0.57735027 -0.57735027 -0.57735027
vn -0.52497544 -0.68993778 0.49838403
vn -0.64935850 0.44531144 0.61646675
vn -0.57735027 -0.57735027 0.57735027
vn -0.57735027 0.57735027 0.57735027
vn -0.73306686 0.31553260 -0.60253810
vn -0.49152402 -0.77148228 -0.40400401
vn 0.57735027 0.57735027 0.57735027
vn 0.57735027 -0.57735027 0.57735027
vn 0.49152402 -0.77148228 -0.40400401
vn 0.73306686 0.31553260 -0.60253810
vn -0.40824829 0.81649658 -0.40824829
vn -0.40824829 0.81649658 0.40824829
vn 0.40824829 0.81649658 0.40824829
vn 0.40824829 0.81649658 -0.40824829
vn -0.57735027 0.57735027 -0.57735027
vn -0.57735027 0.57735027 0.57735027
vn 0.57735027 0.57735027 0.57735027
vn 0.57735027 0.57735027 -0.57735027
g Cube3_default
usemtl default
s 1
f 1//1 5//5 6//6 2//2
f 1//1 16//16 15//15 5//5
f 1//1 31//31 30//30 16//16
f 2//2 11//11 12//12 1//1
f 2//2 28//28 27//27 11//11
f 3//3 12//12 11//11 4//4
f 3//3 69//69 72//72 7//7
f 4//4 11//11 9//9 8//8
f 4//4 70//70 69//69 3//3
f 5//5 10//10 9//9 6//6
f 5//5 36//36 35//35 10//10
f 6//6 20//20 19//19 2//2
f 6//6 23//23 22//22 20//20
f 7//7 10//10 12//12 3//3
f 7//7 72//72 71//71 8//8
f 8//8 9//9 10//10 7//7
f 8//8 71//71 70//70 4//4
f 9//9 24//24 23//23 6//6
f 10//10 14//14 13//13 12//12
f 10//10 35//35 34//34 14//14
f 11//11 18//18 17//17 9//9
f 11//11 27//27 26//26 18//18
f 12//12 32//32 31//31 1//1
f 13//13 29//29 32//32 12//12
f 14//14 15//15 16//16 13//13
f 14//14 34//34 33//33 15//15
f 15//15 33//33 36//36 5//5
f 16//16 30//30 29//29 13//13
f 17//17 21//21 24//24 9//9
f 18//18 19//19 20//20 17//17
f 18//18 26//26 25//25 19//19
f 19//19 25//25 28//28 2//2
f 20//20 22//22 21//21 17//17
f 21//21 49//49 52//52 24//24
f 22//22 50//50 49//49 21//21
f 23//23 51//51 50//50 22//22
f 24//24 52//52 51//51 23//23
f 25//25 45//45 48//48 28//28
f 26//26 46//46 45//45 25//25
f 27//27 47//47 46//46 26//26
f 28//28 48//48 47//47 27//27
f 29//29 41//41 44//44 32//32
f 30//30 42//42 41//41 29//29
f 31//31 43//43 42//42 30//30
f 32//32 44//44 43//43 31//31
f 33//33 37//37 40//40 36//36
f 34//34 38//38 37//37 33//33
f 35//35 39//39 38//38 34//34
f 36//36 40//40 39//39 35//35
f 37//37 65//65 68//68 40//40
f 38//38 66//66 65//65 37//37
f 39//39 67//67 66//66 38//38
f 40//40 68//68 67//67 39//39
f 41//41 61//61 64//64 44//44
f 42//42 62//62 61//61 41//41
f 43//43 63//63 62//62 42//42
f 44//44 64//64 63//63 43//43
f 45//45 57//57 60//60 48//48
f 46//46 58//58 57//57 45//45
f 47//47 59//59 58//58 46//46
f 48//48 60//60 59//59 47//47
f 49//49 53//53 56//56 52//52
f 50//50 54//54 53//53 49//49
f 51//51 55//55 54//54 50//50
f 52//52 56//56 55//55 51//51
f 54//54 55//55 56//56 53//53
f 58//58 59//59 60//60 57//57
f 62//62 63//63 64//64 61//61
f 66//66 67//67 68//68 65//65
f 69//69 73//73 76//76 72//72
f 70//70 74//74 73//73 69//69
f 71//71 75//75 74//74 70//70
f 72//72 76//76 75//75 71//71
f 74//74 75//75 76//76 73//73
